Coordinates
version=1
nRows=29
nColumns=24
inDegrees=yes

Units are S.I. units (second, meters, Newtons, ...)
Angles are in degrees.

endheader
time	pelvis_tilt	pelvis_list	pelvis_rotation	pelvis_tx	pelvis_ty	pelvis_tz	hip_flexion_r	hip_adduction_r	hip_rotation_r	knee_angle_r	ankle_angle_r	subtalar_angle_r	mtp_angle_r	hip_flexion_l	hip_adduction_l	hip_rotation_l	knee_angle_l	ankle_angle_l	subtalar_angle_l	mtp_angle_l	lumbar_extension	lumbar_bending	lumbar_rotation
      0.45800000	     -7.91009491	     -0.00976999	     -0.51688171	     -0.76707167	      1.02896957	      0.30125729	     36.67554083	      0.63613515	     -4.25076899	    -19.72727622	      7.10104301	     -0.77645490	      6.49530974	     -5.03615054	     -0.04221779	     -1.26488936	    -13.28160525	     24.38001902	      8.71571284	      3.38573231	     -3.09633519	      0.06601811	     -2.03572986
      0.46216667	     -7.86071926	      0.02598031	     -0.44131640	     -0.76099689	      1.02776006	      0.30147587	     36.61361793	      0.63252187	     -3.96902780	    -19.68370379	      7.00394904	     -1.04378397	      6.48357558	     -5.24088284	     -0.03855037	     -1.30257135	    -13.74552202	     24.51483202	      8.87267703	      3.42042843	     -3.13074159	      0.07509310	     -2.05985953
      0.46633333	     -7.84259619	      0.04815088	     -0.37021678	     -0.75485709	      1.02650403	      0.30172436	     36.59109667	      0.64492607	     -3.71396820	    -19.74688316	      6.88683848	     -1.31828434	      6.46353383	     -5.36075028	     -0.06968386	     -1.48543384	    -14.32670601	     24.70482663	      9.19641886	      3.52097848	     -3.11077180	      0.10409349	     -2.07915341
      0.47050000	     -7.74952786	      0.06672121	     -0.29570380	     -0.74870890	      1.02542355	      0.30197569	     36.48432666	      0.66165664	     -3.45628393	    -19.88674177	      6.78801623	     -1.62722703	      6.44704947	     -5.56280458	     -0.10228714	     -1.60230015	    -14.90366070	     24.80895820	      9.45772628	      3.61765503	     -3.19212210	      0.12269111	     -2.11349914
      0.47466667	     -7.69029076	      0.07256063	     -0.22495512	     -0.74249766	      1.02430705	      0.30223646	     36.41929665	      0.69242622	     -3.22689363	    -20.12386947	      6.66519163	     -1.95869770	      6.42611835	     -5.69304056	     -0.16191794	     -1.79892160	    -15.56171243	     24.93078570	      9.80726803	      3.77164652	     -3.21419586	      0.17360207	     -2.13197428
      0.47883333	     -7.61390536	      0.08212119	     -0.15768274	     -0.73627615	      1.02324183	      0.30251656	     36.34345429	      0.72353226	     -3.00090533	    -20.45021821	      6.55036270	     -2.28520670	      6.40530802	     -5.82180711	     -0.22196254	     -1.98102209	    -16.26925923	     25.02153640	     10.15858503	      3.95887196	     -3.26531861	      0.22309534	     -2.15234309
      0.48300000	     -7.51853618	      0.09412619	     -0.09222966	     -0.73004283	      1.02225001	      0.30279917	     36.25175464	      0.75429271	     -2.78416546	    -20.85255321	      6.43120688	     -2.62882894	      6.38527739	     -5.94997574	     -0.28060845	     -2.14203358	    -17.01692069	     25.08958099	     10.50628920	      4.15911410	     -3.34498017	      0.27575349	     -2.16727471
      0.48716667	     -7.43327570	      0.07236436	     -0.03252700	     -0.72373279	      1.02128141	      0.30311609	     36.16272043	      0.82111225	     -2.60525894	    -21.30711365	      6.28141428	     -2.98991295	      6.35977103	     -6.02503634	     -0.39777514	     -2.42215073	    -17.86123142	     25.11718169	     10.92671718	      4.45391256	     -3.37491723	      0.36377856	     -2.17433715
      0.49133333	     -7.31839380	      0.06390647	      0.02340088	     -0.71744097	      1.02039252	      0.30343971	     36.05774202	      0.87548425	     -2.44617547	    -21.84540848	      6.17141665	     -3.30229153	      6.15512757	     -6.12155349	     -0.49867979	     -2.63984681	    -18.71941729	     25.05881137	     11.28081355	      7.53050629	     -3.47078834	      0.43668125	     -2.16062059
      0.49550000	     -7.22366840	      0.05579269	      0.07339980	     -0.71113416	      1.01951802	      0.30380799	     35.97088833	      0.94239058	     -2.24775771	    -22.42285530	      6.01166644	     -3.70900542	      6.14348957	     -6.15780230	     -0.60917994	     -2.88459990	    -19.66073127	     24.99295412	     11.66208599	      7.60573911	     -3.51972568	      0.51621686	     -2.17075994
      0.49966667	     -7.11153565	      0.03716523	      0.11777881	     -0.70482010	      1.01870813	      0.30419715	     35.87188093	      1.01939910	     -2.08889399	    -23.05527300	      5.87851838	     -4.07191124	      6.12664659	     -6.17637289	     -0.74477077	     -3.16940652	    -20.67881095	     24.91094308	     12.10708608	      7.75128687	     -3.59583036	      0.60686900	     -2.15419600
      0.50383333	     -6.99863180	      0.01855812	      0.15214062	     -0.69850752	      1.01794637	      0.30461810	     35.77647968	      1.10402766	     -1.92545302	    -23.72949068	      5.74998737	     -4.44061687	      6.10348237	     -6.16486347	     -0.88649379	     -3.45338322	    -21.75396857	     24.77102828	     12.53486946	      7.95590178	     -3.67262341	      0.69947557	     -2.13187794
      0.50800000	     -6.87092459	     -0.01048606	      0.18230082	     -0.69220107	      1.01724567	      0.30506169	     35.66898292	      1.20073640	     -1.77831043	    -24.43981380	      5.64419825	     -4.79431418	      6.07119272	     -6.13563012	     -1.05264104	     -3.76498495	    -22.89791686	     24.58583222	     12.98785283	      8.22645073	     -3.76788831	      0.80548415	     -2.09980928
      0.51216667	     -6.75648451	     -0.03342067	      0.20497960	     -0.68590085	      1.01657434	      0.30554325	     35.58068312	      1.29740541	     -1.63233625	    -25.18373351	      5.56623637	     -5.12851117	      6.02957580	     -6.05671571	     -1.22079063	     -4.07494905	    -24.10256125	     24.33843455	     13.42583592	      8.55517026	     -3.84372937	      0.90231044	     -2.05894774
      0.51633333	     -6.60331416	     -0.06915520	      0.21592892	     -0.67959807	      1.01604595	      0.30604096	     35.44414173	      1.41339495	     -1.48480563	    -25.93780650	      5.56132065	     -5.44262954	      5.53019537	     -6.00060049	     -1.40643278	     -4.37078427	    -25.32623966	     23.88353091	     13.76996710	     12.36266087	     -3.97994893	      1.02979364	     -2.00245173
      0.52050000	     -6.52931937	     -0.10219714	      0.25352155	     -0.67333034	      1.01541888	      0.30652031	     35.40041020	      1.50831984	     -1.38737957	    -26.72167496	      5.54006789	     -5.74197680	      5.50766675	     -5.79514101	     -1.60304852	     -4.63575815	    -26.67995969	     23.53394291	     14.15947853	     12.48750531	     -4.00365308	      1.14012969	     -1.96060661
      0.52466667	     -6.41859483	     -0.12341851	      0.25172491	     -0.66709239	      1.01489765	      0.30708315	     35.32103051	      1.61734854	     -1.24607093	    -27.51978873	      5.57854872	     -6.00721422	      5.48002195	     -5.60640884	     -1.79376976	     -4.94393423	    -28.06874703	     23.08425527	     14.52989976	     12.63604119	     -4.08113612	      1.22825686	     -1.90822577
      0.52883333	     -6.30771369	     -0.16657313	      0.25409442	     -0.66086508	      1.01444391	      0.30764720	     35.22713030	      1.74456442	     -1.12580029	    -28.30162628	      5.66554197	     -6.25524313	      5.44086622	     -5.38271984	     -2.01927714	     -5.24159611	    -29.51543443	     22.56167762	     14.89355443	     12.83378522	     -4.15941558	      1.35434660	     -1.84231215
      0.53300000	     -6.20954771	     -0.21537081	      0.25305993	     -0.65465480	      1.01403617	      0.30821531	     35.13676791	      1.87762062	     -1.01400724	    -29.07202722	      5.79222093	     -6.48032215	      5.38709395	     -5.10804609	     -2.25960997	     -5.53739194	    -31.01858208	     21.96199225	     15.22674986	     13.08810554	     -4.22451619	      1.48765672	     -1.77265738
      0.53716667	     -6.09626803	     -0.26556849	      0.25338069	     -0.64848398	      1.01372939	      0.30877667	     35.01636414	      2.01066322	     -0.91168857	    -29.82080008	      5.97705930	     -6.68699579	      4.48030129	     -4.82409261	     -2.49802264	     -5.77049450	    -32.54259675	     21.19259978	     15.40619051	     16.98793553	     -4.31617707	      1.63006585	     -1.67863609
      0.54133333	     -5.98643109	     -0.31296909	      0.24031648	     -0.64234663	      1.01345949	      0.30935327	     34.89285707	      2.14123395	     -0.82320611	    -30.55853791	      6.22601975	     -6.80742293	      4.47333895	     -4.49741195	     -2.74380757	     -6.03073846	    -34.13218814	     20.45201100	     15.63293347	     17.02713664	     -4.40014949	      1.76488381	     -1.62347293
      0.54550000	     -5.89202231	     -0.37275973	      0.22756300	     -0.63623511	      1.01324216	      0.30992667	     34.76258232	      2.28296598	     -0.74209018	    -31.25248961	      6.48924742	     -6.94208544	      4.45154575	     -4.12510153	     -3.00582553	     -6.26121558	    -35.75891908	     19.66310876	     15.81127194	     17.10035593	     -4.46834345	      1.91833561	     -1.53944512
      0.54966667	     -5.79770560	     -0.43848197	      0.21253852	     -0.63016396	      1.01309877	      0.31048928	     34.61083119	      2.42746245	     -0.67399797	    -31.90354000	      6.79087578	     -7.04525031	      4.41860146	     -3.72041924	     -3.27761809	     -6.47892479	    -37.42097331	     18.79976084	     15.92800015	     17.19660215	     -4.54225009	      2.07752634	     -1.45143489
      0.55383333	     -5.67778760	     -0.48784235	      0.20168624	     -0.62414699	      1.01308281	      0.31100720	     34.41449338	      2.54589197	     -0.62499874	    -32.52246632	      7.13903345	     -7.15307557	      4.40872198	     -3.32526024	     -3.51441538	     -6.61733799	    -39.07907440	     17.86821653	     15.89412504	     17.22565442	     -4.65449835	      2.22450874	     -1.38660802
      0.55800000	     -5.61859255	     -0.57087787	      0.18373604	     -0.61815162	      1.01300313	      0.31156824	     34.25609073	      2.70302757	     -0.57638631	    -33.08645124	      7.52468850	     -7.18498783	      4.29726373	     -2.82086233	     -3.81677158	     -6.81741208	    -40.80774433	     16.98025855	     16.01721315	     17.45444718	     -4.69690670	      2.39935555	     -1.24571330
      0.56216667	     -5.52067074	     -0.65455265	      0.15591819	     -0.61219590	      1.01308550	      0.31207666	     34.02897668	      2.85358781	     -0.54799094	    -33.59213432	      7.90689541	     -7.17480390	      4.24388092	     -2.35090885	     -4.09831264	     -6.96504454	    -42.51627895	     15.99710437	     15.88370740	     17.54145167	     -4.77939549	      2.58692262	     -1.16163569
      0.56633333	     -5.45279843	     -0.72177689	      0.14249242	     -0.60629231	      1.01319119	      0.31255361	     33.81711159	      2.97673491	     -0.53133909	    -34.06985311	      8.36092968	     -7.15613073	      4.11254182	     -1.81899662	     -4.35581378	     -7.05898764	    -44.23279028	     15.03900802	     15.75836882	     17.69643420	     -4.83808123	      2.75791825	     -1.03912955
      0.57050000	     -5.35474215	     -0.81313123	      0.11952757	     -0.60042271	      1.01343225	      0.31302723	     33.53730572	      3.12521983	     -0.52146650	    -34.46670180	      8.77549968	     -7.14058533	      4.05536593	     -1.30608581	     -4.63987782	     -7.16189234	    -45.94428861	     14.07744517	     15.53107580	     17.72994054	     -4.93295813	      2.94759872	     -0.95221575
      0.57466667	     -5.27105927	     -0.90075429	      0.10739404	     -0.59459551	      1.01374367	      0.31347528	     33.24401083	      3.26536747	     -0.50352251	    -34.80722275	      9.22847605	     -7.13494183	      4.02565123	     -0.75476404	     -4.91450010	     -7.23070657	    -47.64527672	     13.12489220	     15.29749798	     17.72451761	     -5.02001377	      3.13454012	     -0.86137035
